<?xml version="1.0" encoding="utf-8"?>
<!-- Svg Vector Icons : http://www.onlinewebfonts.com/icon -->
<!DOCTYPE svg PUBLIC "-//W3C//DTD SVG 1.1//EN" "http://www.w3.org/Graphics/SVG/1.1/DTD/svg11.dtd">
<svg version="1.1" xmlns="http://www.w3.org/2000/svg" xmlns:xlink="http://www.w3.org/1999/xlink" x="0px" y="0px" viewBox="0 0 1000 1000" enable-background="new 0 0 1000 1000" xml:space="preserve">
<metadata> Svg Vector Icons : http://www.onlinewebfonts.com/icon </metadata>
<g><g transform="translate(0.000000,511.000000) scale(0.100000,-0.100000)"><path d="M4894.4,4975.2c-39.1-31.3-1020.9-1414-1337.7-1885.3c-82.1-119.3-84.1-191.7-7.8-267.9l56.7-56.7h1398.3h1398.3l50.9,60.6c29.3,35.2,50.8,84.1,50.8,117.3c0,43-162.3,287.5-676.7,1024.8c-371.6,531.9-698.2,985.7-725.5,1007.2C5037.1,5024.1,4958.9,5026,4894.4,4975.2z M5477.2,3829.1c258.2-371.6,471.3-682.5,475.2-690.4c2-7.8-426.3-15.7-954.4-15.7c-528,0-958.3,5.9-954.4,15.7c9.8,29.3,944.6,1365.1,954.4,1365.1C5003.9,4503.9,5219,4200.7,5477.2,3829.1z"/><path d="M2013.6,1546.9C1644,1298.5,167.5,256.1,138.1,222.9C87.3,166.1,87.3,39,138.1-9.9c21.5-21.5,469.4-338.3,995.4-706c627.8-438.1,975.9-670.8,1018.9-678.6c50.8-7.8,76.3,2,129.1,48.9l66.5,58.7l5.9,1337.7c3.9,735.3,0,1365.1-5.9,1402.2C2318.7,1615.3,2174,1656.4,2013.6,1546.9z M1986.3,103.6v-960.2l-52.8,35.2C1681.2-657.2,627.1,93.8,627.1,109.4c0,17.6,1316.2,952.4,1345.5,954.4C1980.4,1063.8,1986.3,631.6,1986.3,103.6z"/><path d="M7706.7,1564.5c-25.4-25.4-50.8-76.3-58.7-111.5c-5.9-37.2-9.8-666.9-5.9-1402.2l5.9-1337.7l66.5-58.7c52.8-46.9,78.2-56.7,129.1-48.9c90,15.7,1998.7,1351.4,2037.8,1427.7c35.2,68.4,19.6,150.6-39.1,205.4c-48.9,45-1859.9,1316.2-1924.4,1349.4C7847.5,1627,7757.5,1615.3,7706.7,1564.5z M8706,592.5c371.6-260.1,672.8-479.1,668.8-488.9c-3.9-11.7-1126.5-803.8-1320.1-932.9l-45-27.4v960.2c0,528,5.9,960.2,11.7,960.2C8027.4,1063.8,8336.4,850.6,8706,592.5z"/><path d="M4884.6,848.7C4644,813.5,4425,647.2,4315.5,418.4c-45-93.9-50.8-133-50.8-312.9c0-185.8,5.9-217.1,54.8-316.8c76.3-154.5,203.4-279.7,361.8-354c119.3-56.7,148.6-62.6,316.8-62.6c166.2,0,199.5,5.9,312.9,60.6c152.5,72.3,285.5,203.4,363.8,355.9c52.8,101.7,56.7,129.1,56.7,316.8c0,172.1-7.8,221-45,301.2C5541.7,721.6,5224.9,895.6,4884.6,848.7z M5101.7,475.1c168.2-45,305.1-254.2,273.8-414.6c-39.1-203.4-181.9-326.6-377.4-326.6c-426.3,0-526.1,590.6-125.2,733.4C4966.7,500.6,5005.8,502.5,5101.7,475.1z"/><path d="M3588-2564c-58.7-31.3-103.6-127.1-91.9-191.7c9.8-46.9,1337.7-1961.6,1394.4-2008.5c50.8-43,178-35.2,222.9,9.8c21.5,21.5,342.2,473.3,713.8,1005.2c432.2,616,676.7,983.7,676.7,1013c0,76.3-52.8,156.5-119.3,179.9c-43,15.6-471.3,21.5-1404.2,21.5C3859.8-2536.6,3631-2540.5,3588-2564z M5956.3-2914.1c0-23.4-942.6-1351.4-958.3-1351.4c-15.6,0-958.3,1327.9-958.3,1351.4c0,3.9,432.2,7.8,958.3,7.8C5526.1-2906.2,5956.3-2910.2,5956.3-2914.1z"/></g></g>
</svg>